<svg width="1920" height="148" viewBox="0 0 1920 148" fill="none" xmlns="http://www.w3.org/2000/svg">
<g id="switch">
<path id="line" d="M0 81C47.589 81 185.556 104.353 320.153 81C454.75 57.6471 640.305 81 640.305 81C640.305 81 805.602 110.25 960.458 81C1115.31 51.75 1280.61 81 1280.61 81C1280.61 81 1449.28 107.728 1599.85 81C1750.41 54.2716 1920 81 1920 81" stroke="#4ED9F9" stroke-width="3" stroke-dasharray="5 5"/>
<g id="switch_01" class='switch'>
<path id="&#208;&#160;&#208;&#181;&#208;&#180;&#208;&#176;&#208;&#186;&#209;&#130;&#208;&#190;&#209;&#128;&#209;&#139;/&#208;&#186;&#208;&#190;&#208;&#191;&#208;&#184;&#209;&#128;&#208;&#176;&#208;&#185;&#209;&#130;&#208;&#181;&#209;&#128;&#209;&#139;" d="M463.525 128.4C464.641 128.4 465.607 128.586 466.423 128.958C467.251 129.33 467.887 129.858 468.331 130.542C468.775 131.226 468.997 132.036 468.997 132.972C468.997 133.896 468.775 134.706 468.331 135.402C467.887 136.086 467.251 136.614 466.423 136.986C465.607 137.346 464.641 137.526 463.525 137.526H460.987V141H458.071V128.4H463.525ZM463.363 135.15C464.239 135.15 464.905 134.964 465.361 134.592C465.817 134.208 466.045 133.668 466.045 132.972C466.045 132.264 465.817 131.724 465.361 131.352C464.905 130.968 464.239 130.776 463.363 130.776H460.987V135.15H463.363ZM480.101 136.194C480.101 136.23 480.083 136.482 480.047 136.95H472.721C472.853 137.55 473.165 138.024 473.657 138.372C474.149 138.72 474.761 138.894 475.493 138.894C475.997 138.894 476.441 138.822 476.825 138.678C477.221 138.522 477.587 138.282 477.923 137.958L479.417 139.578C478.505 140.622 477.173 141.144 475.421 141.144C474.329 141.144 473.363 140.934 472.523 140.514C471.683 140.082 471.035 139.488 470.579 138.732C470.123 137.976 469.895 137.118 469.895 136.158C469.895 135.21 470.117 134.358 470.561 133.602C471.017 132.834 471.635 132.24 472.415 131.82C473.207 131.388 474.089 131.172 475.061 131.172C476.009 131.172 476.867 131.376 477.635 131.784C478.403 132.192 479.003 132.78 479.435 133.548C479.879 134.304 480.101 135.186 480.101 136.194ZM475.079 133.296C474.443 133.296 473.909 133.476 473.477 133.836C473.045 134.196 472.781 134.688 472.685 135.312H477.455C477.359 134.7 477.095 134.214 476.663 133.854C476.231 133.482 475.703 133.296 475.079 133.296ZM493.019 138.696V143.088H490.409V141H483.605V143.088H480.995V138.696H481.391C481.991 138.684 482.405 138.33 482.633 137.634C482.861 136.938 483.005 135.948 483.065 134.664L483.191 131.316H491.633V138.696H493.019ZM485.603 134.862C485.567 135.846 485.489 136.65 485.369 137.274C485.261 137.898 485.051 138.372 484.739 138.696H488.825V133.62H485.657L485.603 134.862ZM498.549 131.172C500.049 131.172 501.201 131.532 502.005 132.252C502.809 132.96 503.211 134.034 503.211 135.474V141H500.583V139.794C500.055 140.694 499.071 141.144 497.631 141.144C496.887 141.144 496.239 141.018 495.687 140.766C495.147 140.514 494.733 140.166 494.445 139.722C494.157 139.278 494.013 138.774 494.013 138.21C494.013 137.31 494.349 136.602 495.021 136.086C495.705 135.57 496.755 135.312 498.171 135.312H500.403C500.403 134.7 500.217 134.232 499.845 133.908C499.473 133.572 498.915 133.404 498.171 133.404C497.655 133.404 497.145 133.488 496.641 133.656C496.149 133.812 495.729 134.028 495.381 134.304L494.373 132.342C494.901 131.97 495.531 131.682 496.263 131.478C497.007 131.274 497.769 131.172 498.549 131.172ZM498.333 139.254C498.813 139.254 499.239 139.146 499.611 138.93C499.983 138.702 500.247 138.372 500.403 137.94V136.95H498.477C497.325 136.95 496.749 137.328 496.749 138.084C496.749 138.444 496.887 138.732 497.163 138.948C497.451 139.152 497.841 139.254 498.333 139.254ZM509.916 137.328H508.458V141H505.65V131.316H508.458V135.078H509.97L512.598 131.316H515.586L512.202 135.96L515.82 141H512.508L509.916 137.328ZM525.247 133.62H521.971V141H519.181V133.62H515.905V131.316H525.247V133.62ZM530.875 141.144C529.855 141.144 528.937 140.934 528.121 140.514C527.317 140.082 526.687 139.488 526.231 138.732C525.775 137.976 525.547 137.118 525.547 136.158C525.547 135.198 525.775 134.34 526.231 133.584C526.687 132.828 527.317 132.24 528.121 131.82C528.937 131.388 529.855 131.172 530.875 131.172C531.895 131.172 532.807 131.388 533.611 131.82C534.415 132.24 535.045 132.828 535.501 133.584C535.957 134.34 536.185 135.198 536.185 136.158C536.185 137.118 535.957 137.976 535.501 138.732C535.045 139.488 534.415 140.082 533.611 140.514C532.807 140.934 531.895 141.144 530.875 141.144ZM530.875 138.84C531.595 138.84 532.183 138.6 532.639 138.12C533.107 137.628 533.341 136.974 533.341 136.158C533.341 135.342 533.107 134.694 532.639 134.214C532.183 133.722 531.595 133.476 530.875 133.476C530.155 133.476 529.561 133.722 529.093 134.214C528.625 134.694 528.391 135.342 528.391 136.158C528.391 136.974 528.625 137.628 529.093 138.12C529.561 138.6 530.155 138.84 530.875 138.84ZM543.823 131.172C544.723 131.172 545.539 131.382 546.271 131.802C547.015 132.21 547.597 132.792 548.017 133.548C548.437 134.292 548.647 135.162 548.647 136.158C548.647 137.154 548.437 138.03 548.017 138.786C547.597 139.53 547.015 140.112 546.271 140.532C545.539 140.94 544.723 141.144 543.823 141.144C542.587 141.144 541.615 140.754 540.907 139.974V144.492H538.099V131.316H540.781V132.432C541.477 131.592 542.491 131.172 543.823 131.172ZM543.337 138.84C544.057 138.84 544.645 138.6 545.101 138.12C545.569 137.628 545.803 136.974 545.803 136.158C545.803 135.342 545.569 134.694 545.101 134.214C544.645 133.722 544.057 133.476 543.337 133.476C542.617 133.476 542.023 133.722 541.555 134.214C541.099 134.694 540.871 135.342 540.871 136.158C540.871 136.974 541.099 137.628 541.555 138.12C542.023 138.6 542.617 138.84 543.337 138.84ZM555.709 134.412C556.969 134.424 557.923 134.706 558.571 135.258C559.219 135.81 559.543 136.602 559.543 137.634C559.543 138.714 559.177 139.548 558.445 140.136C557.713 140.724 556.675 141.018 555.331 141.018L550.615 141V131.316H553.405V134.412H555.709ZM560.587 131.316H563.377V141H560.587V131.316ZM555.079 139.02C555.619 139.032 556.033 138.918 556.321 138.678C556.609 138.438 556.753 138.078 556.753 137.598C556.753 137.13 556.609 136.788 556.321 136.572C556.045 136.356 555.631 136.242 555.079 136.23L553.405 136.212V139.02H555.079ZM570.079 125.844H572.581L566.641 142.8H564.139L570.079 125.844ZM576.238 137.328H574.78V141H571.972V131.316H574.78V135.078H576.292L578.92 131.316H581.908L578.524 135.96L582.142 141H578.83L576.238 137.328ZM587.758 141.144C586.738 141.144 585.82 140.934 585.004 140.514C584.2 140.082 583.57 139.488 583.114 138.732C582.658 137.976 582.43 137.118 582.43 136.158C582.43 135.198 582.658 134.34 583.114 133.584C583.57 132.828 584.2 132.24 585.004 131.82C585.82 131.388 586.738 131.172 587.758 131.172C588.778 131.172 589.69 131.388 590.494 131.82C591.298 132.24 591.928 132.828 592.384 133.584C592.84 134.34 593.068 135.198 593.068 136.158C593.068 137.118 592.84 137.976 592.384 138.732C591.928 139.488 591.298 140.082 590.494 140.514C589.69 140.934 588.778 141.144 587.758 141.144ZM587.758 138.84C588.478 138.84 589.066 138.6 589.522 138.12C589.99 137.628 590.224 136.974 590.224 136.158C590.224 135.342 589.99 134.694 589.522 134.214C589.066 133.722 588.478 133.476 587.758 133.476C587.038 133.476 586.444 133.722 585.976 134.214C585.508 134.694 585.274 135.342 585.274 136.158C585.274 136.974 585.508 137.628 585.976 138.12C586.444 138.6 587.038 138.84 587.758 138.84ZM604.629 131.316V141H601.821V133.62H597.789V141H594.999V131.316H604.629ZM607.322 131.316H610.112V137.076L614.828 131.316H617.402V141H614.612V135.24L609.914 141H607.322V131.316ZM625.807 131.172C626.707 131.172 627.523 131.382 628.255 131.802C628.999 132.21 629.581 132.792 630.001 133.548C630.421 134.292 630.631 135.162 630.631 136.158C630.631 137.154 630.421 138.03 630.001 138.786C629.581 139.53 628.999 140.112 628.255 140.532C627.523 140.94 626.707 141.144 625.807 141.144C624.571 141.144 623.599 140.754 622.891 139.974V144.492H620.083V131.316H622.765V132.432C623.461 131.592 624.475 131.172 625.807 131.172ZM625.321 138.84C626.041 138.84 626.629 138.6 627.085 138.12C627.553 137.628 627.787 136.974 627.787 136.158C627.787 135.342 627.553 134.694 627.085 134.214C626.629 133.722 626.041 133.476 625.321 133.476C624.601 133.476 624.007 133.722 623.539 134.214C623.083 134.694 622.855 135.342 622.855 136.158C622.855 136.974 623.083 137.628 623.539 138.12C624.007 138.6 624.601 138.84 625.321 138.84ZM636.203 131.172C637.703 131.172 638.855 131.532 639.659 132.252C640.463 132.96 640.865 134.034 640.865 135.474V141H638.237V139.794C637.709 140.694 636.725 141.144 635.285 141.144C634.541 141.144 633.893 141.018 633.341 140.766C632.801 140.514 632.387 140.166 632.099 139.722C631.811 139.278 631.667 138.774 631.667 138.21C631.667 137.31 632.003 136.602 632.675 136.086C633.359 135.57 634.409 135.312 635.825 135.312H638.057C638.057 134.7 637.871 134.232 637.499 133.908C637.127 133.572 636.569 133.404 635.825 133.404C635.309 133.404 634.799 133.488 634.295 133.656C633.803 133.812 633.383 134.028 633.035 134.304L632.027 132.342C632.555 131.97 633.185 131.682 633.917 131.478C634.661 131.274 635.423 131.172 636.203 131.172ZM635.987 139.254C636.467 139.254 636.893 139.146 637.265 138.93C637.637 138.702 637.901 138.372 638.057 137.94V136.95H636.131C634.979 136.95 634.403 137.328 634.403 138.084C634.403 138.444 634.541 138.732 634.817 138.948C635.105 139.152 635.495 139.254 635.987 139.254ZM643.304 131.316H646.094V137.076L650.81 131.316H653.384V141H650.594V135.24L645.896 141H643.304V131.316ZM648.164 130.272C646.052 130.272 644.99 129.342 644.978 127.482H646.814C646.826 127.902 646.94 128.232 647.156 128.472C647.384 128.7 647.714 128.814 648.146 128.814C648.578 128.814 648.908 128.7 649.136 128.472C649.376 128.232 649.496 127.902 649.496 127.482H651.368C651.356 129.342 650.288 130.272 648.164 130.272ZM664.219 133.62H660.943V141H658.153V133.62H654.877V131.316H664.219V133.62ZM674.726 136.194C674.726 136.23 674.708 136.482 674.672 136.95H667.346C667.478 137.55 667.79 138.024 668.282 138.372C668.774 138.72 669.386 138.894 670.118 138.894C670.622 138.894 671.066 138.822 671.45 138.678C671.846 138.522 672.212 138.282 672.548 137.958L674.042 139.578C673.13 140.622 671.798 141.144 670.046 141.144C668.954 141.144 667.988 140.934 667.148 140.514C666.308 140.082 665.66 139.488 665.204 138.732C664.748 137.976 664.52 137.118 664.52 136.158C664.52 135.21 664.742 134.358 665.186 133.602C665.642 132.834 666.26 132.24 667.04 131.82C667.832 131.388 668.714 131.172 669.686 131.172C670.634 131.172 671.492 131.376 672.26 131.784C673.028 132.192 673.628 132.78 674.06 133.548C674.504 134.304 674.726 135.186 674.726 136.194ZM669.704 133.296C669.068 133.296 668.534 133.476 668.102 133.836C667.67 134.196 667.406 134.688 667.31 135.312H672.08C671.984 134.7 671.72 134.214 671.288 133.854C670.856 133.482 670.328 133.296 669.704 133.296ZM682.584 131.172C683.484 131.172 684.3 131.382 685.032 131.802C685.776 132.21 686.358 132.792 686.778 133.548C687.198 134.292 687.408 135.162 687.408 136.158C687.408 137.154 687.198 138.03 686.778 138.786C686.358 139.53 685.776 140.112 685.032 140.532C684.3 140.94 683.484 141.144 682.584 141.144C681.348 141.144 680.376 140.754 679.668 139.974V144.492H676.86V131.316H679.542V132.432C680.238 131.592 681.252 131.172 682.584 131.172ZM682.098 138.84C682.818 138.84 683.406 138.6 683.862 138.12C684.33 137.628 684.564 136.974 684.564 136.158C684.564 135.342 684.33 134.694 683.862 134.214C683.406 133.722 682.818 133.476 682.098 133.476C681.378 133.476 680.784 133.722 680.316 134.214C679.86 134.694 679.632 135.342 679.632 136.158C679.632 136.974 679.86 137.628 680.316 138.12C680.784 138.6 681.378 138.84 682.098 138.84ZM694.47 134.412C695.73 134.424 696.684 134.706 697.332 135.258C697.98 135.81 698.304 136.602 698.304 137.634C698.304 138.714 697.938 139.548 697.206 140.136C696.474 140.724 695.436 141.018 694.092 141.018L689.376 141V131.316H692.166V134.412H694.47ZM699.348 131.316H702.138V141H699.348V131.316ZM693.84 139.02C694.38 139.032 694.794 138.918 695.082 138.678C695.37 138.438 695.514 138.078 695.514 137.598C695.514 137.13 695.37 136.788 695.082 136.572C694.806 136.356 694.392 136.242 693.84 136.23L692.166 136.212V139.02H693.84Z" fill="#EC409D"/>
<path id="01_2" d="M573.624 33.396C571.71 33.396 570.005 32.923 568.509 31.977C567.013 31.031 565.836 29.667 564.978 27.885C564.142 26.081 563.724 23.936 563.724 21.45C563.724 18.964 564.142 16.83 564.978 15.048C565.836 13.244 567.013 11.869 568.509 10.923C570.005 9.977 571.71 9.504 573.624 9.504C575.538 9.504 577.243 9.977 578.739 10.923C580.235 11.869 581.401 13.244 582.237 15.048C583.095 16.83 583.524 18.964 583.524 21.45C583.524 23.936 583.095 26.081 582.237 27.885C581.401 29.667 580.235 31.031 578.739 31.977C577.243 32.923 575.538 33.396 573.624 33.396ZM573.624 28.875C575.032 28.875 576.132 28.27 576.924 27.06C577.738 25.85 578.145 23.98 578.145 21.45C578.145 18.92 577.738 17.05 576.924 15.84C576.132 14.63 575.032 14.025 573.624 14.025C572.238 14.025 571.138 14.63 570.324 15.84C569.532 17.05 569.136 18.92 569.136 21.45C569.136 23.98 569.532 25.85 570.324 27.06C571.138 28.27 572.238 28.875 573.624 28.875ZM594.838 9.9V33H589.492V14.19H584.872V9.9H594.838Z" fill="#EC409D"/>
<g id="Group 111">
<circle id="Ellipse 55" cx="580" cy="73" r="10" fill="#EC409D"/>
<circle id="Ellipse 59" opacity="0.5" cx="580" cy="73" r="21.5" stroke="#EC409D"/>
</g>
</g>
<g id="switch_02" class='switch'>
<circle id="Ellipse 57" cx="962" cy="81" r="10" fill="#4ED9F9"/>
<path id="&#208;&#148;&#208;&#184;&#208;&#183;&#208;&#176;&#208;&#185;&#208;&#189;&#208;&#181;&#209;&#128;&#209;&#139; &#208;&#184; &#208;&#178;&#208;&#181;&#209;&#128;&#209;&#129;&#209;&#130;&#208;&#176;&#208;&#187;&#209;&#140;&#209;&#137;&#208;&#184;&#208;&#186;&#208;&#184;" d="M834.42 138.624V143.61H831.72V141H822.828V143.61H820.128L820.146 138.624H820.65C821.406 138.6 821.94 138.048 822.252 136.968C822.564 135.888 822.756 134.346 822.828 132.342L822.972 128.4H832.656V138.624H834.42ZM825.402 132.612C825.342 134.112 825.216 135.372 825.024 136.392C824.832 137.4 824.538 138.144 824.142 138.624H829.776V130.776H825.456L825.402 132.612ZM836.167 131.316H838.957V137.076L843.673 131.316H846.247V141H843.457V135.24L838.759 141H836.167V131.316ZM855.141 135.96C855.717 136.14 856.161 136.416 856.473 136.788C856.797 137.16 856.959 137.604 856.959 138.12C856.959 138.732 856.749 139.272 856.329 139.74C855.909 140.196 855.333 140.55 854.601 140.802C853.869 141.054 853.041 141.18 852.117 141.18C851.361 141.18 850.617 141.102 849.885 140.946C849.153 140.79 848.475 140.556 847.851 140.244L848.607 138.282C849.627 138.774 850.755 139.02 851.991 139.02C852.651 139.02 853.167 138.924 853.539 138.732C853.923 138.528 854.115 138.246 854.115 137.886C854.115 137.574 853.983 137.34 853.719 137.184C853.455 137.016 853.071 136.932 852.567 136.932H850.587V135.186H852.315C852.807 135.186 853.185 135.108 853.449 134.952C853.713 134.796 853.845 134.568 853.845 134.268C853.845 133.956 853.677 133.716 853.341 133.548C853.017 133.38 852.549 133.296 851.937 133.296C851.001 133.296 849.981 133.518 848.877 133.962L848.193 132.018C849.537 131.43 850.845 131.136 852.117 131.136C852.993 131.136 853.773 131.244 854.457 131.46C855.153 131.676 855.699 131.994 856.095 132.414C856.491 132.822 856.689 133.302 856.689 133.854C856.689 134.31 856.551 134.724 856.275 135.096C855.999 135.456 855.621 135.744 855.141 135.96ZM862.763 131.172C864.263 131.172 865.415 131.532 866.219 132.252C867.023 132.96 867.425 134.034 867.425 135.474V141H864.797V139.794C864.269 140.694 863.285 141.144 861.845 141.144C861.101 141.144 860.453 141.018 859.901 140.766C859.361 140.514 858.947 140.166 858.659 139.722C858.371 139.278 858.227 138.774 858.227 138.21C858.227 137.31 858.563 136.602 859.235 136.086C859.919 135.57 860.969 135.312 862.385 135.312H864.617C864.617 134.7 864.431 134.232 864.059 133.908C863.687 133.572 863.129 133.404 862.385 133.404C861.869 133.404 861.359 133.488 860.855 133.656C860.363 133.812 859.943 134.028 859.595 134.304L858.587 132.342C859.115 131.97 859.745 131.682 860.477 131.478C861.221 131.274 861.983 131.172 862.763 131.172ZM862.547 139.254C863.027 139.254 863.453 139.146 863.825 138.93C864.197 138.702 864.461 138.372 864.617 137.94V136.95H862.691C861.539 136.95 860.963 137.328 860.963 138.084C860.963 138.444 861.101 138.732 861.377 138.948C861.665 139.152 862.055 139.254 862.547 139.254ZM869.865 131.316H872.655V137.076L877.371 131.316H879.945V141H877.155V135.24L872.457 141H869.865V131.316ZM874.725 130.272C872.613 130.272 871.551 129.342 871.539 127.482H873.375C873.387 127.902 873.501 128.232 873.717 128.472C873.945 128.7 874.275 128.814 874.707 128.814C875.139 128.814 875.469 128.7 875.697 128.472C875.937 128.232 876.057 127.902 876.057 127.482H877.929C877.917 129.342 876.849 130.272 874.725 130.272ZM882.644 131.316H885.434V135.096H889.646V131.316H892.454V141H889.646V137.382H885.434V141H882.644V131.316ZM904.556 136.194C904.556 136.23 904.538 136.482 904.502 136.95H897.176C897.308 137.55 897.62 138.024 898.112 138.372C898.604 138.72 899.216 138.894 899.948 138.894C900.452 138.894 900.896 138.822 901.28 138.678C901.676 138.522 902.042 138.282 902.378 137.958L903.872 139.578C902.96 140.622 901.628 141.144 899.876 141.144C898.784 141.144 897.818 140.934 896.978 140.514C896.138 140.082 895.49 139.488 895.034 138.732C894.578 137.976 894.35 137.118 894.35 136.158C894.35 135.21 894.572 134.358 895.016 133.602C895.472 132.834 896.09 132.24 896.87 131.82C897.662 131.388 898.544 131.172 899.516 131.172C900.464 131.172 901.322 131.376 902.09 131.784C902.858 132.192 903.458 132.78 903.89 133.548C904.334 134.304 904.556 135.186 904.556 136.194ZM899.534 133.296C898.898 133.296 898.364 133.476 897.932 133.836C897.5 134.196 897.236 134.688 897.14 135.312H901.91C901.814 134.7 901.55 134.214 901.118 133.854C900.686 133.482 900.158 133.296 899.534 133.296ZM912.414 131.172C913.314 131.172 914.13 131.382 914.862 131.802C915.606 132.21 916.188 132.792 916.608 133.548C917.028 134.292 917.238 135.162 917.238 136.158C917.238 137.154 917.028 138.03 916.608 138.786C916.188 139.53 915.606 140.112 914.862 140.532C914.13 140.94 913.314 141.144 912.414 141.144C911.178 141.144 910.206 140.754 909.498 139.974V144.492H906.69V131.316H909.372V132.432C910.068 131.592 911.082 131.172 912.414 131.172ZM911.928 138.84C912.648 138.84 913.236 138.6 913.692 138.12C914.16 137.628 914.394 136.974 914.394 136.158C914.394 135.342 914.16 134.694 913.692 134.214C913.236 133.722 912.648 133.476 911.928 133.476C911.208 133.476 910.614 133.722 910.146 134.214C909.69 134.694 909.462 135.342 909.462 136.158C909.462 136.974 909.69 137.628 910.146 138.12C910.614 138.6 911.208 138.84 911.928 138.84ZM924.3 134.412C925.56 134.424 926.514 134.706 927.162 135.258C927.81 135.81 928.134 136.602 928.134 137.634C928.134 138.714 927.768 139.548 927.036 140.136C926.304 140.724 925.266 141.018 923.922 141.018L919.206 141V131.316H921.996V134.412H924.3ZM929.178 131.316H931.968V141H929.178V131.316ZM923.67 139.02C924.21 139.032 924.624 138.918 924.912 138.678C925.2 138.438 925.344 138.078 925.344 137.598C925.344 137.13 925.2 136.788 924.912 136.572C924.636 136.356 924.222 136.242 923.67 136.23L921.996 136.212V139.02H923.67ZM939.773 131.316H942.563V137.076L947.279 131.316H949.853V141H947.063V135.24L942.365 141H939.773V131.316ZM965.048 135.942C966.188 136.326 966.758 137.094 966.758 138.246C966.758 139.122 966.428 139.8 965.768 140.28C965.108 140.76 964.124 141 962.816 141H957.65V131.316H962.6C963.812 131.316 964.76 131.538 965.444 131.982C966.128 132.414 966.47 133.026 966.47 133.818C966.47 134.298 966.344 134.724 966.092 135.096C965.852 135.456 965.504 135.738 965.048 135.942ZM960.224 135.294H962.348C963.332 135.294 963.824 134.946 963.824 134.25C963.824 133.566 963.332 133.224 962.348 133.224H960.224V135.294ZM962.582 139.092C963.614 139.092 964.13 138.738 964.13 138.03C964.13 137.658 964.01 137.388 963.77 137.22C963.53 137.04 963.152 136.95 962.636 136.95H960.224V139.092H962.582ZM978.261 136.194C978.261 136.23 978.243 136.482 978.207 136.95H970.881C971.013 137.55 971.325 138.024 971.817 138.372C972.309 138.72 972.921 138.894 973.653 138.894C974.157 138.894 974.601 138.822 974.985 138.678C975.381 138.522 975.747 138.282 976.083 137.958L977.577 139.578C976.665 140.622 975.333 141.144 973.581 141.144C972.489 141.144 971.523 140.934 970.683 140.514C969.843 140.082 969.195 139.488 968.739 138.732C968.283 137.976 968.055 137.118 968.055 136.158C968.055 135.21 968.277 134.358 968.721 133.602C969.177 132.834 969.795 132.24 970.575 131.82C971.367 131.388 972.249 131.172 973.221 131.172C974.169 131.172 975.027 131.376 975.795 131.784C976.563 132.192 977.163 132.78 977.595 133.548C978.039 134.304 978.261 135.186 978.261 136.194ZM973.239 133.296C972.603 133.296 972.069 133.476 971.637 133.836C971.205 134.196 970.941 134.688 970.845 135.312H975.615C975.519 134.7 975.255 134.214 974.823 133.854C974.391 133.482 973.863 133.296 973.239 133.296ZM986.119 131.172C987.019 131.172 987.835 131.382 988.567 131.802C989.311 132.21 989.893 132.792 990.313 133.548C990.733 134.292 990.943 135.162 990.943 136.158C990.943 137.154 990.733 138.03 990.313 138.786C989.893 139.53 989.311 140.112 988.567 140.532C987.835 140.94 987.019 141.144 986.119 141.144C984.883 141.144 983.911 140.754 983.203 139.974V144.492H980.395V131.316H983.077V132.432C983.773 131.592 984.787 131.172 986.119 131.172ZM985.633 138.84C986.353 138.84 986.941 138.6 987.397 138.12C987.865 137.628 988.099 136.974 988.099 136.158C988.099 135.342 987.865 134.694 987.397 134.214C986.941 133.722 986.353 133.476 985.633 133.476C984.913 133.476 984.319 133.722 983.851 134.214C983.395 134.694 983.167 135.342 983.167 136.158C983.167 136.974 983.395 137.628 983.851 138.12C984.319 138.6 984.913 138.84 985.633 138.84ZM997.52 141.144C996.488 141.144 995.558 140.934 994.73 140.514C993.914 140.082 993.272 139.488 992.804 138.732C992.348 137.976 992.12 137.118 992.12 136.158C992.12 135.198 992.348 134.34 992.804 133.584C993.272 132.828 993.914 132.24 994.73 131.82C995.558 131.388 996.488 131.172 997.52 131.172C998.54 131.172 999.428 131.388 1000.18 131.82C1000.95 132.24 1001.51 132.846 1001.86 133.638L999.68 134.808C999.176 133.92 998.45 133.476 997.502 133.476C996.77 133.476 996.164 133.716 995.684 134.196C995.204 134.676 994.964 135.33 994.964 136.158C994.964 136.986 995.204 137.64 995.684 138.12C996.164 138.6 996.77 138.84 997.502 138.84C998.462 138.84 999.188 138.396 999.68 137.508L1001.86 138.696C1001.51 139.464 1000.95 140.064 1000.18 140.496C999.428 140.928 998.54 141.144 997.52 141.144ZM1011.66 133.62H1008.39V141H1005.6V133.62H1002.32V131.316H1011.66V133.62ZM1016.92 131.172C1018.42 131.172 1019.58 131.532 1020.38 132.252C1021.18 132.96 1021.59 134.034 1021.59 135.474V141H1018.96V139.794C1018.43 140.694 1017.45 141.144 1016.01 141.144C1015.26 141.144 1014.61 141.018 1014.06 140.766C1013.52 140.514 1013.11 140.166 1012.82 139.722C1012.53 139.278 1012.39 138.774 1012.39 138.21C1012.39 137.31 1012.72 136.602 1013.4 136.086C1014.08 135.57 1015.13 135.312 1016.55 135.312H1018.78C1018.78 134.7 1018.59 134.232 1018.22 133.908C1017.85 133.572 1017.29 133.404 1016.55 133.404C1016.03 133.404 1015.52 133.488 1015.02 133.656C1014.52 133.812 1014.1 134.028 1013.76 134.304L1012.75 132.342C1013.28 131.97 1013.91 131.682 1014.64 131.478C1015.38 131.274 1016.14 131.172 1016.92 131.172ZM1016.71 139.254C1017.19 139.254 1017.61 139.146 1017.99 138.93C1018.36 138.702 1018.62 138.372 1018.78 137.94V136.95H1016.85C1015.7 136.95 1015.12 137.328 1015.12 138.084C1015.12 138.444 1015.26 138.732 1015.54 138.948C1015.83 139.152 1016.22 139.254 1016.71 139.254ZM1033.31 131.316V141H1030.5V133.62H1027.44L1027.35 135.33C1027.31 136.602 1027.19 137.658 1026.99 138.498C1026.8 139.338 1026.49 139.998 1026.06 140.478C1025.63 140.958 1025.03 141.198 1024.26 141.198C1023.85 141.198 1023.36 141.126 1022.8 140.982L1022.94 138.678C1023.14 138.702 1023.27 138.714 1023.36 138.714C1023.78 138.714 1024.09 138.564 1024.29 138.264C1024.51 137.952 1024.65 137.562 1024.73 137.094C1024.8 136.614 1024.85 135.984 1024.89 135.204L1025.03 131.316H1033.31ZM1041.25 134.412C1042.51 134.424 1043.48 134.712 1044.15 135.276C1044.82 135.828 1045.16 136.614 1045.16 137.634C1045.16 138.702 1044.78 139.536 1044.02 140.136C1043.28 140.724 1042.23 141.018 1040.87 141.018L1036.01 141V131.316H1038.8V134.412H1041.25ZM1040.62 139.02C1041.16 139.032 1041.58 138.918 1041.86 138.678C1042.15 138.438 1042.3 138.078 1042.3 137.598C1042.3 137.13 1042.15 136.788 1041.86 136.572C1041.59 136.356 1041.17 136.242 1040.62 136.23L1038.8 136.212V139.02H1040.62ZM1061.69 131.316V141H1046.91V131.316H1049.7V138.696H1052.92V131.316H1055.71V138.696H1058.9V131.316H1061.69ZM1063.04 138.696V142.926H1060.43V141H1058.83V138.696H1063.04ZM1064.38 131.316H1067.17V137.076L1071.89 131.316H1074.46V141H1071.67V135.24L1066.98 141H1064.38V131.316ZM1081.43 137.328H1079.97V141H1077.16V131.316H1079.97V135.078H1081.48L1084.11 131.316H1087.1L1083.72 135.96L1087.33 141H1084.02L1081.43 137.328ZM1088.71 131.316H1091.5V137.076L1096.22 131.316H1098.79V141H1096V135.24L1091.3 141H1088.71V131.316Z" fill="#5C4C9B"/>
<g id="Group 112">
<path id="02_2" d="M950.353 33.396C948.439 33.396 946.734 32.923 945.238 31.977C943.742 31.031 942.565 29.667 941.707 27.885C940.871 26.081 940.453 23.936 940.453 21.45C940.453 18.964 940.871 16.83 941.707 15.048C942.565 13.244 943.742 11.869 945.238 10.923C946.734 9.977 948.439 9.504 950.353 9.504C952.267 9.504 953.972 9.977 955.468 10.923C956.964 11.869 958.13 13.244 958.966 15.048C959.824 16.83 960.253 18.964 960.253 21.45C960.253 23.936 959.824 26.081 958.966 27.885C958.13 29.667 956.964 31.031 955.468 31.977C953.972 32.923 952.267 33.396 950.353 33.396ZM950.353 28.875C951.761 28.875 952.861 28.27 953.653 27.06C954.467 25.85 954.874 23.98 954.874 21.45C954.874 18.92 954.467 17.05 953.653 15.84C952.861 14.63 951.761 14.025 950.353 14.025C948.967 14.025 947.867 14.63 947.053 15.84C946.261 17.05 945.865 18.92 945.865 21.45C945.865 23.98 946.261 25.85 947.053 27.06C947.867 28.27 948.967 28.875 950.353 28.875ZM979.916 28.644V33H962.459V29.535L971.369 21.12C972.315 20.218 972.953 19.448 973.283 18.81C973.613 18.15 973.778 17.501 973.778 16.863C973.778 15.939 973.459 15.235 972.821 14.751C972.205 14.245 971.292 13.992 970.082 13.992C969.07 13.992 968.157 14.19 967.343 14.586C966.529 14.96 965.847 15.532 965.297 16.302L961.403 13.794C962.305 12.452 963.548 11.407 965.132 10.659C966.716 9.889 968.531 9.504 970.577 9.504C972.293 9.504 973.789 9.79 975.065 10.362C976.363 10.912 977.364 11.704 978.068 12.738C978.794 13.75 979.157 14.949 979.157 16.335C979.157 17.589 978.893 18.766 978.365 19.866C977.837 20.966 976.814 22.22 975.296 23.628L969.983 28.644H979.916Z" fill="#5C4C9B"/>
<line id="Line 15" x1="936" y1="42.5" x2="984" y2="42.5" stroke="#5C4C9B"/>
</g>
</g>
<g id="switch_03" class='switch'>
<circle id="Ellipse 58" cx="1340" cy="87" r="10" fill="#4ED9F9"/>
<path id="&#208;&#161;&#208;&#187;&#208;&#190;&#208;&#182;&#208;&#189;&#208;&#190;&#209;&#129;&#209;&#130;&#209;&#140; &#208;&#191;&#209;&#128;&#208;&#190;&#208;&#181;&#208;&#186;&#209;&#130;&#208;&#190;&#208;&#178;" d="M1245.03 141.216C1243.74 141.216 1242.58 140.94 1241.53 140.388C1240.5 139.824 1239.69 139.05 1239.09 138.066C1238.5 137.07 1238.2 135.948 1238.2 134.7C1238.2 133.452 1238.5 132.336 1239.09 131.352C1239.69 130.356 1240.5 129.582 1241.53 129.03C1242.58 128.466 1243.75 128.184 1245.04 128.184C1246.14 128.184 1247.12 128.376 1248 128.76C1248.88 129.144 1249.63 129.696 1250.23 130.416L1248.36 132.144C1247.5 131.16 1246.45 130.668 1245.19 130.668C1244.41 130.668 1243.71 130.842 1243.1 131.19C1242.49 131.526 1242.01 132 1241.66 132.612C1241.32 133.224 1241.16 133.92 1241.16 134.7C1241.16 135.48 1241.32 136.176 1241.66 136.788C1242.01 137.4 1242.49 137.88 1243.1 138.228C1243.71 138.564 1244.41 138.732 1245.19 138.732C1246.45 138.732 1247.5 138.234 1248.36 137.238L1250.23 138.966C1249.63 139.698 1248.88 140.256 1248 140.64C1247.11 141.024 1246.12 141.216 1245.03 141.216ZM1260.88 131.316V141H1258.08V133.62H1255.02L1254.93 135.33C1254.88 136.602 1254.76 137.658 1254.57 138.498C1254.37 139.338 1254.06 139.998 1253.63 140.478C1253.2 140.958 1252.6 141.198 1251.83 141.198C1251.42 141.198 1250.94 141.126 1250.37 140.982L1250.52 138.678C1250.71 138.702 1250.85 138.714 1250.93 138.714C1251.35 138.714 1251.66 138.564 1251.87 138.264C1252.08 137.952 1252.23 137.562 1252.3 137.094C1252.37 136.614 1252.42 135.984 1252.46 135.204L1252.6 131.316H1260.88ZM1268.12 141.144C1267.1 141.144 1266.18 140.934 1265.37 140.514C1264.56 140.082 1263.93 139.488 1263.48 138.732C1263.02 137.976 1262.79 137.118 1262.79 136.158C1262.79 135.198 1263.02 134.34 1263.48 133.584C1263.93 132.828 1264.56 132.24 1265.37 131.82C1266.18 131.388 1267.1 131.172 1268.12 131.172C1269.14 131.172 1270.05 131.388 1270.86 131.82C1271.66 132.24 1272.29 132.828 1272.75 133.584C1273.2 134.34 1273.43 135.198 1273.43 136.158C1273.43 137.118 1273.2 137.976 1272.75 138.732C1272.29 139.488 1271.66 140.082 1270.86 140.514C1270.05 140.934 1269.14 141.144 1268.12 141.144ZM1268.12 138.84C1268.84 138.84 1269.43 138.6 1269.88 138.12C1270.35 137.628 1270.59 136.974 1270.59 136.158C1270.59 135.342 1270.35 134.694 1269.88 134.214C1269.43 133.722 1268.84 133.476 1268.12 133.476C1267.4 133.476 1266.81 133.722 1266.34 134.214C1265.87 134.694 1265.64 135.342 1265.64 136.158C1265.64 136.974 1265.87 137.628 1266.34 138.12C1266.81 138.6 1267.4 138.84 1268.12 138.84ZM1284.66 137.328H1283.31V141H1280.53V137.328H1279.18L1277.13 141H1273.82L1276.86 135.996L1274.04 131.316H1277.01L1279.15 135.078H1280.53V131.316H1283.31V135.078H1284.67L1286.83 131.316H1289.8L1286.98 135.996L1290.04 141H1286.71L1284.66 137.328ZM1291.5 131.316H1294.29V135.096H1298.5V131.316H1301.31V141H1298.5V137.382H1294.29V141H1291.5V131.316ZM1308.53 141.144C1307.51 141.144 1306.59 140.934 1305.78 140.514C1304.97 140.082 1304.34 139.488 1303.89 138.732C1303.43 137.976 1303.2 137.118 1303.2 136.158C1303.2 135.198 1303.43 134.34 1303.89 133.584C1304.34 132.828 1304.97 132.24 1305.78 131.82C1306.59 131.388 1307.51 131.172 1308.53 131.172C1309.55 131.172 1310.46 131.388 1311.27 131.82C1312.07 132.24 1312.7 132.828 1313.16 133.584C1313.61 134.34 1313.84 135.198 1313.84 136.158C1313.84 137.118 1313.61 137.976 1313.16 138.732C1312.7 139.488 1312.07 140.082 1311.27 140.514C1310.46 140.934 1309.55 141.144 1308.53 141.144ZM1308.53 138.84C1309.25 138.84 1309.84 138.6 1310.3 138.12C1310.76 137.628 1311 136.974 1311 136.158C1311 135.342 1310.76 134.694 1310.3 134.214C1309.84 133.722 1309.25 133.476 1308.53 133.476C1307.81 133.476 1307.22 133.722 1306.75 134.214C1306.28 134.694 1306.05 135.342 1306.05 136.158C1306.05 136.974 1306.28 137.628 1306.75 138.12C1307.22 138.6 1307.81 138.84 1308.53 138.84ZM1320.38 141.144C1319.35 141.144 1318.42 140.934 1317.59 140.514C1316.78 140.082 1316.13 139.488 1315.67 138.732C1315.21 137.976 1314.98 137.118 1314.98 136.158C1314.98 135.198 1315.21 134.34 1315.67 133.584C1316.13 132.828 1316.78 132.24 1317.59 131.82C1318.42 131.388 1319.35 131.172 1320.38 131.172C1321.4 131.172 1322.29 131.388 1323.05 131.82C1323.81 132.24 1324.37 132.846 1324.72 133.638L1322.54 134.808C1322.04 133.92 1321.31 133.476 1320.36 133.476C1319.63 133.476 1319.03 133.716 1318.55 134.196C1318.07 134.676 1317.83 135.33 1317.83 136.158C1317.83 136.986 1318.07 137.64 1318.55 138.12C1319.03 138.6 1319.63 138.84 1320.36 138.84C1321.32 138.84 1322.05 138.396 1322.54 137.508L1324.72 138.696C1324.37 139.464 1323.81 140.064 1323.05 140.496C1322.29 140.928 1321.4 141.144 1320.38 141.144ZM1334.53 133.62H1331.25V141H1328.46V133.62H1325.19V131.316H1334.53V133.62ZM1341.26 134.412C1342.52 134.424 1343.49 134.712 1344.16 135.276C1344.83 135.828 1345.17 136.614 1345.17 137.634C1345.17 138.702 1344.79 139.536 1344.03 140.136C1343.29 140.724 1342.24 141.018 1340.88 141.018L1336.02 141V131.316H1338.81V134.412H1341.26ZM1340.63 139.02C1341.17 139.032 1341.59 138.918 1341.87 138.678C1342.16 138.438 1342.31 138.078 1342.31 137.598C1342.31 137.13 1342.16 136.788 1341.87 136.572C1341.6 136.356 1341.18 136.242 1340.63 136.23L1338.81 136.212V139.02H1340.63ZM1361.65 131.316V141H1358.84V133.62H1354.81V141H1352.02V131.316H1361.65ZM1370.05 131.172C1370.95 131.172 1371.76 131.382 1372.5 131.802C1373.24 132.21 1373.82 132.792 1374.24 133.548C1374.66 134.292 1374.87 135.162 1374.87 136.158C1374.87 137.154 1374.66 138.03 1374.24 138.786C1373.82 139.53 1373.24 140.112 1372.5 140.532C1371.76 140.94 1370.95 141.144 1370.05 141.144C1368.81 141.144 1367.84 140.754 1367.13 139.974V144.492H1364.32V131.316H1367.01V132.432C1367.7 131.592 1368.72 131.172 1370.05 131.172ZM1369.56 138.84C1370.28 138.84 1370.87 138.6 1371.33 138.12C1371.79 137.628 1372.03 136.974 1372.03 136.158C1372.03 135.342 1371.79 134.694 1371.33 134.214C1370.87 133.722 1370.28 133.476 1369.56 133.476C1368.84 133.476 1368.25 133.722 1367.78 134.214C1367.32 134.694 1367.1 135.342 1367.1 136.158C1367.1 136.974 1367.32 137.628 1367.78 138.12C1368.25 138.6 1368.84 138.84 1369.56 138.84ZM1381.38 141.144C1380.36 141.144 1379.44 140.934 1378.62 140.514C1377.82 140.082 1377.19 139.488 1376.73 138.732C1376.28 137.976 1376.05 137.118 1376.05 136.158C1376.05 135.198 1376.28 134.34 1376.73 133.584C1377.19 132.828 1377.82 132.24 1378.62 131.82C1379.44 131.388 1380.36 131.172 1381.38 131.172C1382.4 131.172 1383.31 131.388 1384.11 131.82C1384.92 132.24 1385.55 132.828 1386 133.584C1386.46 134.34 1386.69 135.198 1386.69 136.158C1386.69 137.118 1386.46 137.976 1386 138.732C1385.55 139.488 1384.92 140.082 1384.11 140.514C1383.31 140.934 1382.4 141.144 1381.38 141.144ZM1381.38 138.84C1382.1 138.84 1382.68 138.6 1383.14 138.12C1383.61 137.628 1383.84 136.974 1383.84 136.158C1383.84 135.342 1383.61 134.694 1383.14 134.214C1382.68 133.722 1382.1 133.476 1381.38 133.476C1380.66 133.476 1380.06 133.722 1379.59 134.214C1379.13 134.694 1378.89 135.342 1378.89 136.158C1378.89 136.974 1379.13 137.628 1379.59 138.12C1380.06 138.6 1380.66 138.84 1381.38 138.84ZM1398.03 136.194C1398.03 136.23 1398.01 136.482 1397.98 136.95H1390.65C1390.78 137.55 1391.1 138.024 1391.59 138.372C1392.08 138.72 1392.69 138.894 1393.42 138.894C1393.93 138.894 1394.37 138.822 1394.76 138.678C1395.15 138.522 1395.52 138.282 1395.85 137.958L1397.35 139.578C1396.44 140.622 1395.1 141.144 1393.35 141.144C1392.26 141.144 1391.29 140.934 1390.45 140.514C1389.61 140.082 1388.97 139.488 1388.51 138.732C1388.05 137.976 1387.83 137.118 1387.83 136.158C1387.83 135.21 1388.05 134.358 1388.49 133.602C1388.95 132.834 1389.57 132.24 1390.35 131.82C1391.14 131.388 1392.02 131.172 1392.99 131.172C1393.94 131.172 1394.8 131.376 1395.57 131.784C1396.33 132.192 1396.93 132.78 1397.37 133.548C1397.81 134.304 1398.03 135.186 1398.03 136.194ZM1393.01 133.296C1392.37 133.296 1391.84 133.476 1391.41 133.836C1390.98 134.196 1390.71 134.688 1390.62 135.312H1395.39C1395.29 134.7 1395.03 134.214 1394.59 133.854C1394.16 133.482 1393.63 133.296 1393.01 133.296ZM1404.45 137.328H1402.99V141H1400.18V131.316H1402.99V135.078H1404.5L1407.13 131.316H1410.12L1406.74 135.96L1410.35 141H1407.04L1404.45 137.328ZM1419.78 133.62H1416.5V141H1413.71V133.62H1410.44V131.316H1419.78V133.62ZM1425.41 141.144C1424.39 141.144 1423.47 140.934 1422.66 140.514C1421.85 140.082 1421.22 139.488 1420.77 138.732C1420.31 137.976 1420.08 137.118 1420.08 136.158C1420.08 135.198 1420.31 134.34 1420.77 133.584C1421.22 132.828 1421.85 132.24 1422.66 131.82C1423.47 131.388 1424.39 131.172 1425.41 131.172C1426.43 131.172 1427.34 131.388 1428.15 131.82C1428.95 132.24 1429.58 132.828 1430.04 133.584C1430.49 134.34 1430.72 135.198 1430.72 136.158C1430.72 137.118 1430.49 137.976 1430.04 138.732C1429.58 139.488 1428.95 140.082 1428.15 140.514C1427.34 140.934 1426.43 141.144 1425.41 141.144ZM1425.41 138.84C1426.13 138.84 1426.72 138.6 1427.17 138.12C1427.64 137.628 1427.88 136.974 1427.88 136.158C1427.88 135.342 1427.64 134.694 1427.17 134.214C1426.72 133.722 1426.13 133.476 1425.41 133.476C1424.69 133.476 1424.1 133.722 1423.63 134.214C1423.16 134.694 1422.93 135.342 1422.93 136.158C1422.93 136.974 1423.16 137.628 1423.63 138.12C1424.1 138.6 1424.69 138.84 1425.41 138.84ZM1440.05 135.942C1441.19 136.326 1441.76 137.094 1441.76 138.246C1441.76 139.122 1441.43 139.8 1440.77 140.28C1440.11 140.76 1439.12 141 1437.82 141H1432.65V131.316H1437.6C1438.81 131.316 1439.76 131.538 1440.44 131.982C1441.13 132.414 1441.47 133.026 1441.47 133.818C1441.47 134.298 1441.34 134.724 1441.09 135.096C1440.85 135.456 1440.5 135.738 1440.05 135.942ZM1435.22 135.294H1437.35C1438.33 135.294 1438.82 134.946 1438.82 134.25C1438.82 133.566 1438.33 133.224 1437.35 133.224H1435.22V135.294ZM1437.58 139.092C1438.61 139.092 1439.13 138.738 1439.13 138.03C1439.13 137.658 1439.01 137.388 1438.77 137.22C1438.53 137.04 1438.15 136.95 1437.64 136.95H1435.22V139.092H1437.58Z" fill="#5C4C9B"/>
<g id="Group 114">
<path id="03_2" d="M1330.38 33.396C1328.47 33.396 1326.77 32.923 1325.27 31.977C1323.77 31.031 1322.6 29.667 1321.74 27.885C1320.9 26.081 1320.48 23.936 1320.48 21.45C1320.48 18.964 1320.9 16.83 1321.74 15.048C1322.6 13.244 1323.77 11.869 1325.27 10.923C1326.77 9.977 1328.47 9.504 1330.38 9.504C1332.3 9.504 1334 9.977 1335.5 10.923C1337 11.869 1338.16 13.244 1339 15.048C1339.86 16.83 1340.28 18.964 1340.28 21.45C1340.28 23.936 1339.86 26.081 1339 27.885C1338.16 29.667 1337 31.031 1335.5 31.977C1334 32.923 1332.3 33.396 1330.38 33.396ZM1330.38 28.875C1331.79 28.875 1332.89 28.27 1333.68 27.06C1334.5 25.85 1334.91 23.98 1334.91 21.45C1334.91 18.92 1334.5 17.05 1333.68 15.84C1332.89 14.63 1331.79 14.025 1330.38 14.025C1329 14.025 1327.9 14.63 1327.08 15.84C1326.29 17.05 1325.9 18.92 1325.9 21.45C1325.9 23.98 1326.29 25.85 1327.08 27.06C1327.9 28.27 1329 28.875 1330.38 28.875ZM1353.35 19.305C1355.37 19.635 1356.93 20.394 1358 21.582C1359.08 22.748 1359.62 24.2 1359.62 25.938C1359.62 27.28 1359.27 28.523 1358.56 29.667C1357.86 30.789 1356.78 31.691 1355.33 32.373C1353.9 33.055 1352.14 33.396 1350.05 33.396C1348.42 33.396 1346.82 33.187 1345.23 32.769C1343.67 32.329 1342.34 31.713 1341.24 30.921L1343.32 26.829C1344.2 27.489 1345.21 28.006 1346.35 28.38C1347.52 28.732 1348.71 28.908 1349.92 28.908C1351.26 28.908 1352.32 28.655 1353.09 28.149C1353.86 27.621 1354.24 26.884 1354.24 25.938C1354.24 24.046 1352.8 23.1 1349.92 23.1H1347.48V19.569L1352.23 14.19H1342.39V9.9H1358.56V13.365L1353.35 19.305Z" fill="#5C4C9B"/>
<line id="Line 16" x1="1316" y1="42.5" x2="1364" y2="42.5" stroke="#5C4C9B"/>
</g>
</g>
</g>
</svg>
