<svg width="375" height="150" viewBox="0 0 375 150" fill="none" xmlns="http://www.w3.org/2000/svg" v-if="isMobile">
<g id="switch">
<g id="line">
<mask id="mask0" mask-type="alpha" maskUnits="userSpaceOnUse" x="-379" y="27" width="1765" height="76">
<path id="Vector" d="M-379 40.9999C-335.278 40.9999 -165.5 101.5 -31.5 101.5C102.5 101.5 99.8417 36.9999 189.5 36.9999C274 36.9999 263.5 101.5 402.5 101.5C541.5 101.5 797.561 40.9999 797.561 40.9999C797.561 40.9999 952.53 67.7283 1090.86 40.9999C1229.19 14.2715 1385 40.9999 1385 40.9999" stroke="#4ED9F9" stroke-width="3" stroke-dasharray="5 5"/>
</mask>
<g mask="url(#mask0)">
<path id="Vector_2" d="M-379 40.9999C-335.278 40.9999 -165.5 101.5 -31.5 101.5C102.5 101.5 99.8417 36.9999 189.5 36.9999C274 36.9999 263.5 101.5 402.5 101.5C541.5 101.5 797.561 40.9999 797.561 40.9999C797.561 40.9999 952.53 67.7283 1090.86 40.9999C1229.19 14.2715 1385 40.9999 1385 40.9999" stroke="#4ED9F9" stroke-width="3" stroke-dasharray="5 5"/>
</g>
</g>
<g id="01">
<path  d="M21.46 118.2C22.328 118.2 23.0793 118.345 23.714 118.634C24.358 118.923 24.8527 119.334 25.198 119.866C25.5433 120.398 25.716 121.028 25.716 121.756C25.716 122.475 25.5433 123.105 25.198 123.646C24.8527 124.178 24.358 124.589 23.714 124.878C23.0793 125.158 22.328 125.298 21.46 125.298H19.486V128H17.218V118.2H21.46ZM21.334 123.45C22.0153 123.45 22.5333 123.305 22.888 123.016C23.2427 122.717 23.42 122.297 23.42 121.756C23.42 121.205 23.2427 120.785 22.888 120.496C22.5333 120.197 22.0153 120.048 21.334 120.048H19.486V123.45H21.334ZM34.3525 124.262C34.3525 124.29 34.3385 124.486 34.3105 124.85H28.6125C28.7151 125.317 28.9578 125.685 29.3405 125.956C29.7231 126.227 30.1991 126.362 30.7685 126.362C31.1605 126.362 31.5058 126.306 31.8045 126.194C32.1125 126.073 32.3971 125.886 32.6585 125.634L33.8205 126.894C33.1111 127.706 32.0751 128.112 30.7125 128.112C29.8631 128.112 29.1118 127.949 28.4585 127.622C27.8051 127.286 27.3011 126.824 26.9465 126.236C26.5918 125.648 26.4145 124.981 26.4145 124.234C26.4145 123.497 26.5871 122.834 26.9325 122.246C27.2871 121.649 27.7678 121.187 28.3745 120.86C28.9905 120.524 29.6765 120.356 30.4325 120.356C31.1698 120.356 31.8371 120.515 32.4345 120.832C33.0318 121.149 33.4985 121.607 33.8345 122.204C34.1798 122.792 34.3525 123.478 34.3525 124.262ZM30.4465 122.008C29.9518 122.008 29.5365 122.148 29.2005 122.428C28.8645 122.708 28.6591 123.091 28.5845 123.576H32.2945C32.2198 123.1 32.0145 122.722 31.6785 122.442C31.3425 122.153 30.9318 122.008 30.4465 122.008ZM44.4002 126.208V129.624H42.3702V128H37.0782V129.624H35.0482V126.208H35.3562C35.8229 126.199 36.1449 125.923 36.3222 125.382C36.4995 124.841 36.6115 124.071 36.6582 123.072L36.7562 120.468H43.3222V126.208H44.4002ZM38.6322 123.226C38.6042 123.991 38.5435 124.617 38.4502 125.102C38.3662 125.587 38.2029 125.956 37.9602 126.208H41.1382V122.26H38.6742L38.6322 123.226ZM48.7006 120.356C49.8673 120.356 50.7633 120.636 51.3886 121.196C52.0139 121.747 52.3266 122.582 52.3266 123.702V128H50.2826V127.062C49.8719 127.762 49.1066 128.112 47.9866 128.112C47.4079 128.112 46.9039 128.014 46.4746 127.818C46.0546 127.622 45.7326 127.351 45.5086 127.006C45.2846 126.661 45.1726 126.269 45.1726 125.83C45.1726 125.13 45.4339 124.579 45.9566 124.178C46.4886 123.777 47.3053 123.576 48.4066 123.576H50.1426C50.1426 123.1 49.9979 122.736 49.7086 122.484C49.4193 122.223 48.9853 122.092 48.4066 122.092C48.0053 122.092 47.6086 122.157 47.2166 122.288C46.8339 122.409 46.5073 122.577 46.2366 122.792L45.4526 121.266C45.8633 120.977 46.3533 120.753 46.9226 120.594C47.5013 120.435 48.0939 120.356 48.7006 120.356ZM48.5326 126.642C48.9059 126.642 49.2373 126.558 49.5266 126.39C49.8159 126.213 50.0213 125.956 50.1426 125.62V124.85H48.6446C47.7486 124.85 47.3006 125.144 47.3006 125.732C47.3006 126.012 47.4079 126.236 47.6226 126.404C47.8466 126.563 48.1499 126.642 48.5326 126.642ZM57.5418 125.144H56.4078V128H54.2238V120.468H56.4078V123.394H57.5838L59.6278 120.468H61.9518L59.3198 124.08L62.1338 128H59.5578L57.5418 125.144ZM69.4659 122.26H66.9179V128H64.7479V122.26H62.1999V120.468H69.4659V122.26ZM73.8436 128.112C73.0503 128.112 72.3363 127.949 71.7016 127.622C71.0763 127.286 70.5863 126.824 70.2316 126.236C69.877 125.648 69.6996 124.981 69.6996 124.234C69.6996 123.487 69.877 122.82 70.2316 122.232C70.5863 121.644 71.0763 121.187 71.7016 120.86C72.3363 120.524 73.0503 120.356 73.8436 120.356C74.637 120.356 75.3463 120.524 75.9716 120.86C76.597 121.187 77.087 121.644 77.4416 122.232C77.7963 122.82 77.9736 123.487 77.9736 124.234C77.9736 124.981 77.7963 125.648 77.4416 126.236C77.087 126.824 76.597 127.286 75.9716 127.622C75.3463 127.949 74.637 128.112 73.8436 128.112ZM73.8436 126.32C74.4036 126.32 74.861 126.133 75.2156 125.76C75.5796 125.377 75.7616 124.869 75.7616 124.234C75.7616 123.599 75.5796 123.095 75.2156 122.722C74.861 122.339 74.4036 122.148 73.8436 122.148C73.2836 122.148 72.8216 122.339 72.4576 122.722C72.0936 123.095 71.9116 123.599 71.9116 124.234C71.9116 124.869 72.0936 125.377 72.4576 125.76C72.8216 126.133 73.2836 126.32 73.8436 126.32ZM83.9138 120.356C84.6138 120.356 85.2484 120.519 85.8178 120.846C86.3964 121.163 86.8491 121.616 87.1758 122.204C87.5024 122.783 87.6658 123.459 87.6658 124.234C87.6658 125.009 87.5024 125.69 87.1758 126.278C86.8491 126.857 86.3964 127.309 85.8178 127.636C85.2484 127.953 84.6138 128.112 83.9138 128.112C82.9524 128.112 82.1964 127.809 81.6458 127.202V130.716H79.4618V120.468H81.5478V121.336C82.0891 120.683 82.8778 120.356 83.9138 120.356ZM83.5358 126.32C84.0958 126.32 84.5531 126.133 84.9078 125.76C85.2718 125.377 85.4538 124.869 85.4538 124.234C85.4538 123.599 85.2718 123.095 84.9078 122.722C84.5531 122.339 84.0958 122.148 83.5358 122.148C82.9758 122.148 82.5138 122.339 82.1498 122.722C81.7951 123.095 81.6178 123.599 81.6178 124.234C81.6178 124.869 81.7951 125.377 82.1498 125.76C82.5138 126.133 82.9758 126.32 83.5358 126.32ZM93.1585 122.876C94.1385 122.885 94.8805 123.105 95.3845 123.534C95.8885 123.963 96.1405 124.579 96.1405 125.382C96.1405 126.222 95.8558 126.871 95.2865 127.328C94.7172 127.785 93.9098 128.014 92.8645 128.014L89.1965 128V120.468H91.3665V122.876H93.1585ZM96.9525 120.468H99.1225V128H96.9525V120.468ZM92.6685 126.46C93.0885 126.469 93.4105 126.381 93.6345 126.194C93.8585 126.007 93.9705 125.727 93.9705 125.354C93.9705 124.99 93.8585 124.724 93.6345 124.556C93.4198 124.388 93.0978 124.299 92.6685 124.29L91.3665 124.276V126.46H92.6685ZM104.336 116.212H106.282L101.662 129.4H99.7157L104.336 116.212ZM20.368 143.144H19.234V146H17.05V138.468H19.234V141.394H20.41L22.454 138.468H24.778L22.146 142.08L24.96 146H22.384L20.368 143.144ZM29.328 146.112C28.5347 146.112 27.8207 145.949 27.186 145.622C26.5607 145.286 26.0707 144.824 25.716 144.236C25.3613 143.648 25.184 142.981 25.184 142.234C25.184 141.487 25.3613 140.82 25.716 140.232C26.0707 139.644 26.5607 139.187 27.186 138.86C27.8207 138.524 28.5347 138.356 29.328 138.356C30.1213 138.356 30.8307 138.524 31.456 138.86C32.0813 139.187 32.5713 139.644 32.926 140.232C33.2807 140.82 33.458 141.487 33.458 142.234C33.458 142.981 33.2807 143.648 32.926 144.236C32.5713 144.824 32.0813 145.286 31.456 145.622C30.8307 145.949 30.1213 146.112 29.328 146.112ZM29.328 144.32C29.888 144.32 30.3453 144.133 30.7 143.76C31.064 143.377 31.246 142.869 31.246 142.234C31.246 141.599 31.064 141.095 30.7 140.722C30.3453 140.339 29.888 140.148 29.328 140.148C28.768 140.148 28.306 140.339 27.942 140.722C27.578 141.095 27.396 141.599 27.396 142.234C27.396 142.869 27.578 143.377 27.942 143.76C28.306 144.133 28.768 144.32 29.328 144.32ZM42.4502 138.468V146H40.2662V140.26H37.1302V146H34.9602V138.468H42.4502ZM44.5441 138.468H46.7141V142.948L50.3821 138.468H52.3841V146H50.2141V141.52L46.5601 146H44.5441V138.468ZM58.9216 138.356C59.6216 138.356 60.2563 138.519 60.8256 138.846C61.4043 139.163 61.8569 139.616 62.1836 140.204C62.5103 140.783 62.6736 141.459 62.6736 142.234C62.6736 143.009 62.5103 143.69 62.1836 144.278C61.8569 144.857 61.4043 145.309 60.8256 145.636C60.2563 145.953 59.6216 146.112 58.9216 146.112C57.9603 146.112 57.2043 145.809 56.6536 145.202V148.716H54.4696V138.468H56.5556V139.336C57.0969 138.683 57.8856 138.356 58.9216 138.356ZM58.5436 144.32C59.1036 144.32 59.5609 144.133 59.9156 143.76C60.2796 143.377 60.4616 142.869 60.4616 142.234C60.4616 141.599 60.2796 141.095 59.9156 140.722C59.5609 140.339 59.1036 140.148 58.5436 140.148C57.9836 140.148 57.5216 140.339 57.1576 140.722C56.8029 141.095 56.6256 141.599 56.6256 142.234C56.6256 142.869 56.8029 143.377 57.1576 143.76C57.5216 144.133 57.9836 144.32 58.5436 144.32ZM67.0073 138.356C68.1739 138.356 69.0699 138.636 69.6953 139.196C70.3206 139.747 70.6333 140.582 70.6333 141.702V146H68.5893V145.062C68.1786 145.762 67.4133 146.112 66.2933 146.112C65.7146 146.112 65.2106 146.014 64.7812 145.818C64.3613 145.622 64.0393 145.351 63.8153 145.006C63.5913 144.661 63.4793 144.269 63.4793 143.83C63.4793 143.13 63.7406 142.579 64.2633 142.178C64.7953 141.777 65.6119 141.576 66.7133 141.576H68.4493C68.4493 141.1 68.3046 140.736 68.0153 140.484C67.7259 140.223 67.2919 140.092 66.7133 140.092C66.3119 140.092 65.9153 140.157 65.5233 140.288C65.1406 140.409 64.8139 140.577 64.5433 140.792L63.7593 139.266C64.1699 138.977 64.6599 138.753 65.2293 138.594C65.8079 138.435 66.4006 138.356 67.0073 138.356ZM66.8393 144.642C67.2126 144.642 67.5439 144.558 67.8333 144.39C68.1226 144.213 68.3279 143.956 68.4493 143.62V142.85H66.9513C66.0553 142.85 65.6073 143.144 65.6073 143.732C65.6073 144.012 65.7146 144.236 65.9293 144.404C66.1533 144.563 66.4566 144.642 66.8393 144.642ZM72.5305 138.468H74.7005V142.948L78.3685 138.468H80.3705V146H78.2005V141.52L74.5465 146H72.5305V138.468ZM76.3105 137.656C74.6678 137.656 73.8418 136.933 73.8325 135.486H75.2605C75.2698 135.813 75.3585 136.069 75.5265 136.256C75.7038 136.433 75.9605 136.522 76.2965 136.522C76.6325 136.522 76.8891 136.433 77.0665 136.256C77.2531 136.069 77.3465 135.813 77.3465 135.486H78.8025C78.7931 136.933 77.9625 137.656 76.3105 137.656ZM88.7979 140.26H86.2499V146H84.0799V140.26H81.5319V138.468H88.7979V140.26ZM96.9697 142.262C96.9697 142.29 96.9557 142.486 96.9277 142.85H91.2297C91.3323 143.317 91.575 143.685 91.9577 143.956C92.3403 144.227 92.8163 144.362 93.3857 144.362C93.7777 144.362 94.123 144.306 94.4217 144.194C94.7297 144.073 95.0143 143.886 95.2757 143.634L96.4377 144.894C95.7283 145.706 94.6923 146.112 93.3297 146.112C92.4803 146.112 91.729 145.949 91.0757 145.622C90.4223 145.286 89.9183 144.824 89.5637 144.236C89.209 143.648 89.0317 142.981 89.0317 142.234C89.0317 141.497 89.2043 140.834 89.5497 140.246C89.9043 139.649 90.385 139.187 90.9917 138.86C91.6077 138.524 92.2937 138.356 93.0497 138.356C93.787 138.356 94.4543 138.515 95.0517 138.832C95.649 139.149 96.1157 139.607 96.4517 140.204C96.797 140.792 96.9697 141.478 96.9697 142.262ZM93.0637 140.008C92.569 140.008 92.1537 140.148 91.8177 140.428C91.4817 140.708 91.2763 141.091 91.2017 141.576H94.9117C94.837 141.1 94.6317 140.722 94.2957 140.442C93.9597 140.153 93.549 140.008 93.0637 140.008ZM103.082 138.356C103.782 138.356 104.416 138.519 104.986 138.846C105.564 139.163 106.017 139.616 106.344 140.204C106.67 140.783 106.834 141.459 106.834 142.234C106.834 143.009 106.67 143.69 106.344 144.278C106.017 144.857 105.564 145.309 104.986 145.636C104.416 145.953 103.782 146.112 103.082 146.112C102.12 146.112 101.364 145.809 100.814 145.202V148.716H98.6298V138.468H100.716V139.336C101.257 138.683 102.046 138.356 103.082 138.356ZM102.704 144.32C103.264 144.32 103.721 144.133 104.076 143.76C104.44 143.377 104.622 142.869 104.622 142.234C104.622 141.599 104.44 141.095 104.076 140.722C103.721 140.339 103.264 140.148 102.704 140.148C102.144 140.148 101.682 140.339 101.318 140.722C100.963 141.095 100.786 141.599 100.786 142.234C100.786 142.869 100.963 143.377 101.318 143.76C101.682 144.133 102.144 144.32 102.704 144.32ZM112.326 140.876C113.306 140.885 114.048 141.105 114.552 141.534C115.056 141.963 115.308 142.579 115.308 143.382C115.308 144.222 115.024 144.871 114.454 145.328C113.885 145.785 113.078 146.014 112.032 146.014L108.364 146V138.468H110.534V140.876H112.326ZM116.12 138.468H118.29V146H116.12V138.468ZM111.836 144.46C112.256 144.469 112.578 144.381 112.802 144.194C113.026 144.007 113.138 143.727 113.138 143.354C113.138 142.99 113.026 142.724 112.802 142.556C112.588 142.388 112.266 142.299 111.836 142.29L110.534 142.276V144.46H111.836Z" fill="#EC409D"/>
<path id="01_2" d="M30.5219 71.216C29.4779 71.216 28.5479 70.958 27.7319 70.442C26.9159 69.926 26.2739 69.182 25.8059 68.21C25.3499 67.226 25.1219 66.056 25.1219 64.7C25.1219 63.344 25.3499 62.18 25.8059 61.208C26.2739 60.224 26.9159 59.474 27.7319 58.958C28.5479 58.442 29.4779 58.184 30.5219 58.184C31.5659 58.184 32.4959 58.442 33.3119 58.958C34.1279 59.474 34.7639 60.224 35.2199 61.208C35.6879 62.18 35.9219 63.344 35.9219 64.7C35.9219 66.056 35.6879 67.226 35.2199 68.21C34.7639 69.182 34.1279 69.926 33.3119 70.442C32.4959 70.958 31.5659 71.216 30.5219 71.216ZM30.5219 68.75C31.2899 68.75 31.8899 68.42 32.3219 67.76C32.7659 67.1 32.9879 66.08 32.9879 64.7C32.9879 63.32 32.7659 62.3 32.3219 61.64C31.8899 60.98 31.2899 60.65 30.5219 60.65C29.7659 60.65 29.1659 60.98 28.7219 61.64C28.2899 62.3 28.0739 63.32 28.0739 64.7C28.0739 66.08 28.2899 67.1 28.7219 67.76C29.1659 68.42 29.7659 68.75 30.5219 68.75ZM42.0933 58.4V71H39.1772V60.74H36.6573V58.4H42.0933Z" fill="#EC409D"/>
<g id="Group 112" class="item-circle">
<circle id="Ellipse 55" cx="34" cy="94" r="6" fill="#EC409D"/>
<circle id="Ellipse 59" opacity="0.5" cx="34" cy="94" r="11.5" stroke="#EC409D"/>
</g>
</g>
<g id="02">
<g id="Group 116" class="item-circle">
<circle id="Ellipse 57" cx="187" cy="35" r="6" fill="#EC409D"/>
<circle id="Ellipse 59_2" opacity="0.5" cx="187" cy="35" r="11.5" stroke="#EC409D"/>
</g>
<path  d="M153.218 76.152V80.03H151.118V78H144.202V80.03H142.102L142.116 76.152H142.508C143.096 76.1333 143.511 75.704 143.754 74.864C143.996 74.024 144.146 72.8247 144.202 71.266L144.314 68.2H151.846V76.152H153.218ZM146.204 71.476C146.157 72.6427 146.059 73.6227 145.91 74.416C145.76 75.2 145.532 75.7787 145.224 76.152H149.606V70.048H146.246L146.204 71.476ZM154.576 70.468H156.746V74.948L160.414 70.468H162.416V78H160.246V73.52L156.592 78H154.576V70.468ZM169.333 74.08C169.781 74.22 170.127 74.4347 170.369 74.724C170.621 75.0133 170.747 75.3587 170.747 75.76C170.747 76.236 170.584 76.656 170.257 77.02C169.931 77.3747 169.483 77.65 168.913 77.846C168.344 78.042 167.7 78.14 166.981 78.14C166.393 78.14 165.815 78.0793 165.245 77.958C164.676 77.8367 164.149 77.6547 163.663 77.412L164.251 75.886C165.045 76.2687 165.922 76.46 166.883 76.46C167.397 76.46 167.798 76.3853 168.087 76.236C168.386 76.0773 168.535 75.858 168.535 75.578C168.535 75.3353 168.433 75.1533 168.227 75.032C168.022 74.9013 167.723 74.836 167.331 74.836H165.791V73.478H167.135C167.518 73.478 167.812 73.4173 168.017 73.296C168.223 73.1747 168.325 72.9973 168.325 72.764C168.325 72.5213 168.195 72.3347 167.933 72.204C167.681 72.0733 167.317 72.008 166.841 72.008C166.113 72.008 165.32 72.1807 164.461 72.526L163.929 71.014C164.975 70.5567 165.992 70.328 166.981 70.328C167.663 70.328 168.269 70.412 168.801 70.58C169.343 70.748 169.767 70.9953 170.075 71.322C170.383 71.6393 170.537 72.0127 170.537 72.442C170.537 72.7967 170.43 73.1187 170.215 73.408C170.001 73.688 169.707 73.912 169.333 74.08ZM175.262 70.356C176.429 70.356 177.325 70.636 177.95 71.196C178.575 71.7467 178.888 72.582 178.888 73.702V78H176.844V77.062C176.433 77.762 175.668 78.112 174.548 78.112C173.969 78.112 173.465 78.014 173.036 77.818C172.616 77.622 172.294 77.3513 172.07 77.006C171.846 76.6607 171.734 76.2687 171.734 75.83C171.734 75.13 171.995 74.5793 172.518 74.178C173.05 73.7767 173.867 73.576 174.968 73.576H176.704C176.704 73.1 176.559 72.736 176.27 72.484C175.981 72.2227 175.547 72.092 174.968 72.092C174.567 72.092 174.17 72.1573 173.778 72.288C173.395 72.4093 173.069 72.5773 172.798 72.792L172.014 71.266C172.425 70.9767 172.915 70.7527 173.484 70.594C174.063 70.4353 174.655 70.356 175.262 70.356ZM175.094 76.642C175.467 76.642 175.799 76.558 176.088 76.39C176.377 76.2127 176.583 75.956 176.704 75.62V74.85H175.206C174.31 74.85 173.862 75.144 173.862 75.732C173.862 76.012 173.969 76.236 174.184 76.404C174.408 76.5627 174.711 76.642 175.094 76.642ZM180.785 70.468H182.955V74.948L186.623 70.468H188.625V78H186.455V73.52L182.801 78H180.785V70.468ZM184.565 69.656C182.923 69.656 182.097 68.9327 182.087 67.486H183.515C183.525 67.8127 183.613 68.0693 183.781 68.256C183.959 68.4333 184.215 68.522 184.551 68.522C184.887 68.522 185.144 68.4333 185.321 68.256C185.508 68.0693 185.601 67.8127 185.601 67.486H187.057C187.048 68.9327 186.217 69.656 184.565 69.656ZM190.725 70.468H192.895V73.408H196.171V70.468H198.355V78H196.171V75.186H192.895V78H190.725V70.468ZM207.768 74.262C207.768 74.29 207.754 74.486 207.726 74.85H202.028C202.13 75.3167 202.373 75.6853 202.756 75.956C203.138 76.2267 203.614 76.362 204.184 76.362C204.576 76.362 204.921 76.306 205.22 76.194C205.528 76.0727 205.812 75.886 206.074 75.634L207.236 76.894C206.526 77.706 205.49 78.112 204.128 78.112C203.278 78.112 202.527 77.9487 201.874 77.622C201.22 77.286 200.716 76.824 200.362 76.236C200.007 75.648 199.83 74.9807 199.83 74.234C199.83 73.4967 200.002 72.834 200.348 72.246C200.702 71.6487 201.183 71.1867 201.79 70.86C202.406 70.524 203.092 70.356 203.848 70.356C204.585 70.356 205.252 70.5147 205.85 70.832C206.447 71.1493 206.914 71.6067 207.25 72.204C207.595 72.792 207.768 73.478 207.768 74.262ZM203.862 72.008C203.367 72.008 202.952 72.148 202.616 72.428C202.28 72.708 202.074 73.0907 202 73.576H205.71C205.635 73.1 205.43 72.722 205.094 72.442C204.758 72.1527 204.347 72.008 203.862 72.008ZM213.88 70.356C214.58 70.356 215.214 70.5193 215.784 70.846C216.362 71.1633 216.815 71.616 217.142 72.204C217.468 72.7827 217.632 73.4593 217.632 74.234C217.632 75.0087 217.468 75.69 217.142 76.278C216.815 76.8567 216.362 77.3093 215.784 77.636C215.214 77.9533 214.58 78.112 213.88 78.112C212.918 78.112 212.162 77.8087 211.612 77.202V80.716H209.428V70.468H211.514V71.336C212.055 70.6827 212.844 70.356 213.88 70.356ZM213.502 76.32C214.062 76.32 214.519 76.1333 214.874 75.76C215.238 75.3773 215.42 74.8687 215.42 74.234C215.42 73.5993 215.238 73.0953 214.874 72.722C214.519 72.3393 214.062 72.148 213.502 72.148C212.942 72.148 212.48 72.3393 212.116 72.722C211.761 73.0953 211.584 73.5993 211.584 74.234C211.584 74.8687 211.761 75.3773 212.116 75.76C212.48 76.1333 212.942 76.32 213.502 76.32ZM223.124 72.876C224.104 72.8853 224.846 73.1047 225.35 73.534C225.854 73.9633 226.106 74.5793 226.106 75.382C226.106 76.222 225.822 76.8707 225.252 77.328C224.683 77.7853 223.876 78.014 222.83 78.014L219.162 78V70.468H221.332V72.876H223.124ZM226.918 70.468H229.088V78H226.918V70.468ZM222.634 76.46C223.054 76.4693 223.376 76.3807 223.6 76.194C223.824 76.0073 223.936 75.7273 223.936 75.354C223.936 74.99 223.824 74.724 223.6 74.556C223.386 74.388 223.064 74.2993 222.634 74.29L221.332 74.276V76.46H222.634ZM126.159 88.468H128.329V92.948L131.997 88.468H133.999V96H131.829V91.52L128.175 96H126.159V88.468ZM145.818 92.066C146.704 92.3647 147.148 92.962 147.148 93.858C147.148 94.5393 146.891 95.0667 146.378 95.44C145.864 95.8133 145.099 96 144.082 96H140.064V88.468H143.914C144.856 88.468 145.594 88.6407 146.126 88.986C146.658 89.322 146.924 89.798 146.924 90.414C146.924 90.7873 146.826 91.1187 146.63 91.408C146.443 91.688 146.172 91.9073 145.818 92.066ZM142.066 91.562H143.718C144.483 91.562 144.866 91.2913 144.866 90.75C144.866 90.218 144.483 89.952 143.718 89.952H142.066V91.562ZM143.9 94.516C144.702 94.516 145.104 94.2407 145.104 93.69C145.104 93.4007 145.01 93.1907 144.824 93.06C144.637 92.92 144.343 92.85 143.942 92.85H142.066V94.516H143.9ZM156.095 92.262C156.095 92.29 156.081 92.486 156.053 92.85H150.355C150.457 93.3167 150.7 93.6853 151.083 93.956C151.465 94.2267 151.941 94.362 152.511 94.362C152.903 94.362 153.248 94.306 153.547 94.194C153.855 94.0727 154.139 93.886 154.401 93.634L155.563 94.894C154.853 95.706 153.817 96.112 152.455 96.112C151.605 96.112 150.854 95.9487 150.201 95.622C149.547 95.286 149.043 94.824 148.689 94.236C148.334 93.648 148.157 92.9807 148.157 92.234C148.157 91.4967 148.329 90.834 148.675 90.246C149.029 89.6487 149.51 89.1867 150.117 88.86C150.733 88.524 151.419 88.356 152.175 88.356C152.912 88.356 153.579 88.5147 154.177 88.832C154.774 89.1493 155.241 89.6067 155.577 90.204C155.922 90.792 156.095 91.478 156.095 92.262ZM152.189 90.008C151.694 90.008 151.279 90.148 150.943 90.428C150.607 90.708 150.401 91.0907 150.327 91.576H154.037C153.962 91.1 153.757 90.722 153.421 90.442C153.085 90.1527 152.674 90.008 152.189 90.008ZM162.207 88.356C162.907 88.356 163.541 88.5193 164.111 88.846C164.689 89.1633 165.142 89.616 165.469 90.204C165.795 90.7827 165.959 91.4593 165.959 92.234C165.959 93.0087 165.795 93.69 165.469 94.278C165.142 94.8567 164.689 95.3093 164.111 95.636C163.541 95.9533 162.907 96.112 162.207 96.112C161.245 96.112 160.489 95.8087 159.939 95.202V98.716H157.755V88.468H159.841V89.336C160.382 88.6827 161.171 88.356 162.207 88.356ZM161.829 94.32C162.389 94.32 162.846 94.1333 163.201 93.76C163.565 93.3773 163.747 92.8687 163.747 92.234C163.747 91.5993 163.565 91.0953 163.201 90.722C162.846 90.3393 162.389 90.148 161.829 90.148C161.269 90.148 160.807 90.3393 160.443 90.722C160.088 91.0953 159.911 91.5993 159.911 92.234C159.911 92.8687 160.088 93.3773 160.443 93.76C160.807 94.1333 161.269 94.32 161.829 94.32ZM171.073 96.112C170.271 96.112 169.547 95.9487 168.903 95.622C168.269 95.286 167.769 94.824 167.405 94.236C167.051 93.648 166.873 92.9807 166.873 92.234C166.873 91.4873 167.051 90.82 167.405 90.232C167.769 89.644 168.269 89.1867 168.903 88.86C169.547 88.524 170.271 88.356 171.073 88.356C171.867 88.356 172.557 88.524 173.145 88.86C173.743 89.1867 174.177 89.658 174.447 90.274L172.753 91.184C172.361 90.4933 171.797 90.148 171.059 90.148C170.49 90.148 170.019 90.3347 169.645 90.708C169.272 91.0813 169.085 91.59 169.085 92.234C169.085 92.878 169.272 93.3867 169.645 93.76C170.019 94.1333 170.49 94.32 171.059 94.32C171.806 94.32 172.371 93.9747 172.753 93.284L174.447 94.208C174.177 94.8053 173.743 95.272 173.145 95.608C172.557 95.944 171.867 96.112 171.073 96.112ZM182.075 90.26H179.527V96H177.357V90.26H174.809V88.468H182.075V90.26ZM186.165 88.356C187.332 88.356 188.228 88.636 188.853 89.196C189.479 89.7467 189.791 90.582 189.791 91.702V96H187.747V95.062C187.337 95.762 186.571 96.112 185.451 96.112C184.873 96.112 184.369 96.014 183.939 95.818C183.519 95.622 183.197 95.3513 182.973 95.006C182.749 94.6607 182.637 94.2687 182.637 93.83C182.637 93.13 182.899 92.5793 183.421 92.178C183.953 91.7767 184.77 91.576 185.871 91.576H187.607C187.607 91.1 187.463 90.736 187.173 90.484C186.884 90.2227 186.45 90.092 185.871 90.092C185.47 90.092 185.073 90.1573 184.681 90.288C184.299 90.4093 183.972 90.5773 183.701 90.792L182.917 89.266C183.328 88.9767 183.818 88.7527 184.387 88.594C184.966 88.4353 185.559 88.356 186.165 88.356ZM185.997 94.642C186.371 94.642 186.702 94.558 186.991 94.39C187.281 94.2127 187.486 93.956 187.607 93.62V92.85H186.109C185.213 92.85 184.765 93.144 184.765 93.732C184.765 94.012 184.873 94.236 185.087 94.404C185.311 94.5627 185.615 94.642 185.997 94.642ZM198.913 88.468V96H196.729V90.26H194.349L194.279 91.59C194.241 92.5793 194.148 93.4007 193.999 94.054C193.849 94.7073 193.607 95.2207 193.271 95.594C192.935 95.9673 192.468 96.154 191.871 96.154C191.553 96.154 191.175 96.098 190.737 95.986L190.849 94.194C190.998 94.2127 191.105 94.222 191.171 94.222C191.497 94.222 191.74 94.1053 191.899 93.872C192.067 93.6293 192.179 93.326 192.235 92.962C192.291 92.5887 192.333 92.0987 192.361 91.492L192.473 88.468H198.913ZM205.087 90.876C206.067 90.8853 206.818 91.1093 207.341 91.548C207.864 91.9773 208.125 92.5887 208.125 93.382C208.125 94.2127 207.831 94.8613 207.243 95.328C206.664 95.7853 205.848 96.014 204.793 96.014L201.013 96V88.468H203.183V90.876H205.087ZM204.597 94.46C205.017 94.4693 205.339 94.3807 205.563 94.194C205.787 94.0073 205.899 93.7273 205.899 93.354C205.899 92.99 205.787 92.724 205.563 92.556C205.348 92.388 205.026 92.2993 204.597 92.29L203.183 92.276V94.46H204.597ZM220.983 88.468V96H209.489V88.468H211.659V94.208H214.165V88.468H216.335V94.208H218.813V88.468H220.983ZM222.033 94.208V97.498H220.003V96H218.757V94.208H222.033ZM223.079 88.468H225.249V92.948L228.917 88.468H230.919V96H228.749V91.52L225.095 96H223.079V88.468ZM236.337 93.144H235.203V96H233.019V88.468H235.203V91.394H236.379L238.423 88.468H240.747L238.115 92.08L240.929 96H238.353L236.337 93.144ZM242.001 88.468H244.171V92.948L247.839 88.468H249.841V96H247.671V91.52L244.017 96H242.001V88.468Z" fill="#EC409D"/>
<path id="02_2" d="M181.738 13.216C180.694 13.216 179.764 12.958 178.948 12.442C178.132 11.926 177.49 11.182 177.022 10.21C176.566 9.226 176.338 8.056 176.338 6.7C176.338 5.344 176.566 4.18 177.022 3.208C177.49 2.224 178.132 1.474 178.948 0.957999C179.764 0.442 180.694 0.184 181.738 0.184C182.782 0.184 183.712 0.442 184.528 0.957999C185.344 1.474 185.98 2.224 186.436 3.208C186.904 4.18 187.138 5.344 187.138 6.7C187.138 8.056 186.904 9.226 186.436 10.21C185.98 11.182 185.344 11.926 184.528 12.442C183.712 12.958 182.782 13.216 181.738 13.216ZM181.738 10.75C182.506 10.75 183.106 10.42 183.538 9.76C183.982 9.1 184.204 8.08 184.204 6.7C184.204 5.32 183.982 4.3 183.538 3.64C183.106 2.98 182.506 2.65 181.738 2.65C180.982 2.65 180.382 2.98 179.938 3.64C179.506 4.3 179.29 5.32 179.29 6.7C179.29 8.08 179.506 9.1 179.938 9.76C180.382 10.42 180.982 10.75 181.738 10.75ZM197.863 10.624V13H188.341V11.11L193.201 6.52C193.717 6.028 194.065 5.608 194.245 5.26C194.425 4.9 194.515 4.546 194.515 4.198C194.515 3.694 194.341 3.31 193.993 3.046C193.657 2.77 193.159 2.632 192.499 2.632C191.947 2.632 191.449 2.74 191.005 2.956C190.561 3.16 190.189 3.472 189.889 3.892L187.765 2.524C188.257 1.792 188.935 1.222 189.799 0.813999C190.663 0.394 191.653 0.184 192.769 0.184C193.705 0.184 194.521 0.34 195.217 0.651999C195.925 0.952 196.471 1.384 196.855 1.948C197.251 2.5 197.449 3.154 197.449 3.91C197.449 4.594 197.305 5.236 197.017 5.836C196.729 6.436 196.171 7.12 195.343 7.888L192.445 10.624H197.863Z" fill="#EC409D"/>
</g>
<g id="03">
<path  d="M280.797 124.168C279.799 124.168 278.893 123.953 278.081 123.524C277.279 123.085 276.644 122.483 276.177 121.718C275.72 120.943 275.491 120.071 275.491 119.1C275.491 118.129 275.72 117.261 276.177 116.496C276.644 115.721 277.279 115.119 278.081 114.69C278.893 114.251 279.803 114.032 280.811 114.032C281.661 114.032 282.426 114.181 283.107 114.48C283.798 114.779 284.377 115.208 284.843 115.768L283.387 117.112C282.725 116.347 281.903 115.964 280.923 115.964C280.317 115.964 279.775 116.099 279.299 116.37C278.823 116.631 278.45 117 278.179 117.476C277.918 117.952 277.787 118.493 277.787 119.1C277.787 119.707 277.918 120.248 278.179 120.724C278.45 121.2 278.823 121.573 279.299 121.844C279.775 122.105 280.317 122.236 280.923 122.236C281.903 122.236 282.725 121.849 283.387 121.074L284.843 122.418C284.377 122.987 283.798 123.421 283.107 123.72C282.417 124.019 281.647 124.168 280.797 124.168ZM293.131 116.468V124H290.947V118.26H288.567L288.497 119.59C288.46 120.579 288.367 121.401 288.217 122.054C288.068 122.707 287.825 123.221 287.489 123.594C287.153 123.967 286.687 124.154 286.089 124.154C285.772 124.154 285.394 124.098 284.955 123.986L285.067 122.194C285.217 122.213 285.324 122.222 285.389 122.222C285.716 122.222 285.959 122.105 286.117 121.872C286.285 121.629 286.397 121.326 286.453 120.962C286.509 120.589 286.551 120.099 286.579 119.492L286.691 116.468H293.131ZM298.76 124.112C297.966 124.112 297.252 123.949 296.618 123.622C295.992 123.286 295.502 122.824 295.148 122.236C294.793 121.648 294.616 120.981 294.616 120.234C294.616 119.487 294.793 118.82 295.148 118.232C295.502 117.644 295.992 117.187 296.618 116.86C297.252 116.524 297.966 116.356 298.76 116.356C299.553 116.356 300.262 116.524 300.888 116.86C301.513 117.187 302.003 117.644 302.358 118.232C302.712 118.82 302.89 119.487 302.89 120.234C302.89 120.981 302.712 121.648 302.358 122.236C302.003 122.824 301.513 123.286 300.888 123.622C300.262 123.949 299.553 124.112 298.76 124.112ZM298.76 122.32C299.32 122.32 299.777 122.133 300.132 121.76C300.496 121.377 300.678 120.869 300.678 120.234C300.678 119.599 300.496 119.095 300.132 118.722C299.777 118.339 299.32 118.148 298.76 118.148C298.2 118.148 297.738 118.339 297.374 118.722C297.01 119.095 296.828 119.599 296.828 120.234C296.828 120.869 297.01 121.377 297.374 121.76C297.738 122.133 298.2 122.32 298.76 122.32ZM311.621 121.144H310.571V124H308.415V121.144H307.365L305.769 124H303.193L305.559 120.108L303.361 116.468H305.671L307.337 119.394H308.415V116.468H310.571V119.394H311.635L313.315 116.468H315.625L313.427 120.108L315.807 124H313.217L311.621 121.144ZM316.943 116.468H319.113V119.408H322.389V116.468H324.573V124H322.389V121.186H319.113V124H316.943V116.468ZM330.191 124.112C329.398 124.112 328.684 123.949 328.049 123.622C327.424 123.286 326.934 122.824 326.579 122.236C326.225 121.648 326.047 120.981 326.047 120.234C326.047 119.487 326.225 118.82 326.579 118.232C326.934 117.644 327.424 117.187 328.049 116.86C328.684 116.524 329.398 116.356 330.191 116.356C330.985 116.356 331.694 116.524 332.319 116.86C332.945 117.187 333.435 117.644 333.789 118.232C334.144 118.82 334.321 119.487 334.321 120.234C334.321 120.981 334.144 121.648 333.789 122.236C333.435 122.824 332.945 123.286 332.319 123.622C331.694 123.949 330.985 124.112 330.191 124.112ZM330.191 122.32C330.751 122.32 331.209 122.133 331.563 121.76C331.927 121.377 332.109 120.869 332.109 120.234C332.109 119.599 331.927 119.095 331.563 118.722C331.209 118.339 330.751 118.148 330.191 118.148C329.631 118.148 329.169 118.339 328.805 118.722C328.441 119.095 328.259 119.599 328.259 120.234C328.259 120.869 328.441 121.377 328.805 121.76C329.169 122.133 329.631 122.32 330.191 122.32ZM339.407 124.112C338.605 124.112 337.881 123.949 337.237 123.622C336.603 123.286 336.103 122.824 335.739 122.236C335.385 121.648 335.207 120.981 335.207 120.234C335.207 119.487 335.385 118.82 335.739 118.232C336.103 117.644 336.603 117.187 337.237 116.86C337.881 116.524 338.605 116.356 339.407 116.356C340.201 116.356 340.891 116.524 341.479 116.86C342.077 117.187 342.511 117.658 342.781 118.274L341.087 119.184C340.695 118.493 340.131 118.148 339.393 118.148C338.824 118.148 338.353 118.335 337.979 118.708C337.606 119.081 337.419 119.59 337.419 120.234C337.419 120.878 337.606 121.387 337.979 121.76C338.353 122.133 338.824 122.32 339.393 122.32C340.14 122.32 340.705 121.975 341.087 121.284L342.781 122.208C342.511 122.805 342.077 123.272 341.479 123.608C340.891 123.944 340.201 124.112 339.407 124.112ZM350.409 118.26H347.861V124H345.691V118.26H343.143V116.468H350.409V118.26ZM355.647 118.876C356.627 118.885 357.379 119.109 357.901 119.548C358.424 119.977 358.685 120.589 358.685 121.382C358.685 122.213 358.391 122.861 357.803 123.328C357.225 123.785 356.408 124.014 355.353 124.014L351.573 124V116.468H353.743V118.876H355.647ZM355.157 122.46C355.577 122.469 355.899 122.381 356.123 122.194C356.347 122.007 356.459 121.727 356.459 121.354C356.459 120.99 356.347 120.724 356.123 120.556C355.909 120.388 355.587 120.299 355.157 120.29L353.743 120.276V122.46H355.157ZM296.118 134.468V142H293.934V136.26H290.798V142H288.628V134.468H296.118ZM302.65 134.356C303.35 134.356 303.985 134.519 304.554 134.846C305.133 135.163 305.585 135.616 305.912 136.204C306.239 136.783 306.402 137.459 306.402 138.234C306.402 139.009 306.239 139.69 305.912 140.278C305.585 140.857 305.133 141.309 304.554 141.636C303.985 141.953 303.35 142.112 302.65 142.112C301.689 142.112 300.933 141.809 300.382 141.202V144.716H298.198V134.468H300.284V135.336C300.825 134.683 301.614 134.356 302.65 134.356ZM302.272 140.32C302.832 140.32 303.289 140.133 303.644 139.76C304.008 139.377 304.19 138.869 304.19 138.234C304.19 137.599 304.008 137.095 303.644 136.722C303.289 136.339 302.832 136.148 302.272 136.148C301.712 136.148 301.25 136.339 300.886 136.722C300.531 137.095 300.354 137.599 300.354 138.234C300.354 138.869 300.531 139.377 300.886 139.76C301.25 140.133 301.712 140.32 302.272 140.32ZM311.461 142.112C310.667 142.112 309.953 141.949 309.319 141.622C308.693 141.286 308.203 140.824 307.849 140.236C307.494 139.648 307.317 138.981 307.317 138.234C307.317 137.487 307.494 136.82 307.849 136.232C308.203 135.644 308.693 135.187 309.319 134.86C309.953 134.524 310.667 134.356 311.461 134.356C312.254 134.356 312.963 134.524 313.589 134.86C314.214 135.187 314.704 135.644 315.059 136.232C315.413 136.82 315.591 137.487 315.591 138.234C315.591 138.981 315.413 139.648 315.059 140.236C314.704 140.824 314.214 141.286 313.589 141.622C312.963 141.949 312.254 142.112 311.461 142.112ZM311.461 140.32C312.021 140.32 312.478 140.133 312.833 139.76C313.197 139.377 313.379 138.869 313.379 138.234C313.379 137.599 313.197 137.095 312.833 136.722C312.478 136.339 312.021 136.148 311.461 136.148C310.901 136.148 310.439 136.339 310.075 136.722C309.711 137.095 309.529 137.599 309.529 138.234C309.529 138.869 309.711 139.377 310.075 139.76C310.439 140.133 310.901 140.32 311.461 140.32ZM324.415 138.262C324.415 138.29 324.401 138.486 324.373 138.85H318.675C318.778 139.317 319.02 139.685 319.403 139.956C319.786 140.227 320.262 140.362 320.831 140.362C321.223 140.362 321.568 140.306 321.867 140.194C322.175 140.073 322.46 139.886 322.721 139.634L323.883 140.894C323.174 141.706 322.138 142.112 320.775 142.112C319.926 142.112 319.174 141.949 318.521 141.622C317.868 141.286 317.364 140.824 317.009 140.236C316.654 139.648 316.477 138.981 316.477 138.234C316.477 137.497 316.65 136.834 316.995 136.246C317.35 135.649 317.83 135.187 318.437 134.86C319.053 134.524 319.739 134.356 320.495 134.356C321.232 134.356 321.9 134.515 322.497 134.832C323.094 135.149 323.561 135.607 323.897 136.204C324.242 136.792 324.415 137.478 324.415 138.262ZM320.509 136.008C320.014 136.008 319.599 136.148 319.263 136.428C318.927 136.708 318.722 137.091 318.647 137.576H322.357C322.282 137.1 322.077 136.722 321.741 136.442C321.405 136.153 320.994 136.008 320.509 136.008ZM329.407 139.144H328.273V142H326.089V134.468H328.273V137.394H329.449L331.493 134.468H333.817L331.185 138.08L333.999 142H331.423L329.407 139.144ZM341.331 136.26H338.783V142H336.613V136.26H334.065V134.468H341.331V136.26ZM345.709 142.112C344.916 142.112 344.202 141.949 343.567 141.622C342.942 141.286 342.452 140.824 342.097 140.236C341.742 139.648 341.565 138.981 341.565 138.234C341.565 137.487 341.742 136.82 342.097 136.232C342.452 135.644 342.942 135.187 343.567 134.86C344.202 134.524 344.916 134.356 345.709 134.356C346.502 134.356 347.212 134.524 347.837 134.86C348.462 135.187 348.952 135.644 349.307 136.232C349.662 136.82 349.839 137.487 349.839 138.234C349.839 138.981 349.662 139.648 349.307 140.236C348.952 140.824 348.462 141.286 347.837 141.622C347.212 141.949 346.502 142.112 345.709 142.112ZM345.709 140.32C346.269 140.32 346.726 140.133 347.081 139.76C347.445 139.377 347.627 138.869 347.627 138.234C347.627 137.599 347.445 137.095 347.081 136.722C346.726 136.339 346.269 136.148 345.709 136.148C345.149 136.148 344.687 136.339 344.323 136.722C343.959 137.095 343.777 137.599 343.777 138.234C343.777 138.869 343.959 139.377 344.323 139.76C344.687 140.133 345.149 140.32 345.709 140.32ZM357.095 138.066C357.982 138.365 358.425 138.962 358.425 139.858C358.425 140.539 358.168 141.067 357.655 141.44C357.142 141.813 356.376 142 355.359 142H351.341V134.468H355.191C356.134 134.468 356.871 134.641 357.403 134.986C357.935 135.322 358.201 135.798 358.201 136.414C358.201 136.787 358.103 137.119 357.907 137.408C357.72 137.688 357.45 137.907 357.095 138.066ZM353.343 137.562H354.995C355.76 137.562 356.143 137.291 356.143 136.75C356.143 136.218 355.76 135.952 354.995 135.952H353.343V137.562ZM355.177 140.516C355.98 140.516 356.381 140.241 356.381 139.69C356.381 139.401 356.288 139.191 356.101 139.06C355.914 138.92 355.62 138.85 355.219 138.85H353.343V140.516H355.177Z" fill="#EC409D"/>
<path id="03_2" d="M333.755 71.216C332.711 71.216 331.781 70.958 330.965 70.442C330.149 69.926 329.507 69.182 329.039 68.21C328.583 67.226 328.355 66.056 328.355 64.7C328.355 63.344 328.583 62.18 329.039 61.208C329.507 60.224 330.149 59.474 330.965 58.958C331.781 58.442 332.711 58.184 333.755 58.184C334.799 58.184 335.729 58.442 336.545 58.958C337.361 59.474 337.997 60.224 338.453 61.208C338.921 62.18 339.155 63.344 339.155 64.7C339.155 66.056 338.921 67.226 338.453 68.21C337.997 69.182 337.361 69.926 336.545 70.442C335.729 70.958 334.799 71.216 333.755 71.216ZM333.755 68.75C334.523 68.75 335.123 68.42 335.555 67.76C335.999 67.1 336.221 66.08 336.221 64.7C336.221 63.32 335.999 62.3 335.555 61.64C335.123 60.98 334.523 60.65 333.755 60.65C332.999 60.65 332.399 60.98 331.955 61.64C331.523 62.3 331.307 63.32 331.307 64.7C331.307 66.08 331.523 67.1 331.955 67.76C332.399 68.42 332.999 68.75 333.755 68.75ZM346.282 63.53C347.386 63.71 348.232 64.124 348.82 64.772C349.408 65.408 349.702 66.2 349.702 67.148C349.702 67.88 349.51 68.558 349.126 69.182C348.742 69.794 348.154 70.286 347.362 70.658C346.582 71.03 345.622 71.216 344.482 71.216C343.594 71.216 342.718 71.102 341.854 70.874C341.002 70.634 340.276 70.298 339.676 69.866L340.81 67.634C341.29 67.994 341.842 68.276 342.466 68.48C343.102 68.672 343.75 68.768 344.41 68.768C345.142 68.768 345.718 68.63 346.138 68.354C346.558 68.066 346.768 67.664 346.768 67.148C346.768 66.116 345.982 65.6 344.41 65.6H343.078V63.674L345.67 60.74H340.306V58.4H349.126V60.29L346.282 63.53Z" fill="#EC409D"/>
<g id="Group 118" class="item-circle">
<circle id="Ellipse 58" cx="339" cy="93" r="6" fill="#EC409D"/>
<circle id="Ellipse 59_3" opacity="0.5" cx="339" cy="93" r="11.5" stroke="#EC409D"/>
</g>
</g>
</g>
</svg>
